<mxfile host="app.diagrams.net" modified="2024-02-23T21:36:01.990Z" agent="Mozilla/5.0 (Windows NT 10.0; Win64; x64; rv:123.0) Gecko/20100101 Firefox/123.0" etag="nSxgojEzOB-nHlfrPJUB" version="23.1.6" type="device">
  <diagram name="Page-1" id="MHz25P8l1DLz0FaoC143">
    <mxGraphModel dx="2805" dy="609" grid="1" gridSize="10" guides="1" tooltips="1" connect="1" arrows="1" fold="1" page="1" pageScale="1" pageWidth="850" pageHeight="1100" math="0" shadow="0">
      <root>
        <mxCell id="0" />
        <mxCell id="1" parent="0" />
        <mxCell id="lVE9GoG7l4XIFUj5tRAL-1" value="Bomberman" style="strokeWidth=1;shadow=0;dashed=0;align=center;html=1;shape=mxgraph.mockup.containers.window;align=left;verticalAlign=top;spacingLeft=8;strokeColor2=#008cff;strokeColor3=#c4c4c4;fontColor=#666666;mainText=;fontSize=17;labelBackgroundColor=none;whiteSpace=wrap;" parent="1" vertex="1">
          <mxGeometry x="80" y="40" width="550" height="450" as="geometry" />
        </mxCell>
        <mxCell id="YuFaT5m2rjDICg5r3-Z0-1" value="Pályaszerkesztő" style="rounded=0;whiteSpace=wrap;html=1;" parent="1" vertex="1">
          <mxGeometry x="110" y="310" width="120" height="30" as="geometry" />
        </mxCell>
        <mxCell id="YuFaT5m2rjDICg5r3-Z0-2" value="Új Játék" style="rounded=0;whiteSpace=wrap;html=1;" parent="1" vertex="1">
          <mxGeometry x="100" y="260" width="120" height="30" as="geometry" />
        </mxCell>
        <mxCell id="YuFaT5m2rjDICg5r3-Z0-3" value="Beállítások" style="rounded=0;whiteSpace=wrap;html=1;" parent="1" vertex="1">
          <mxGeometry x="120" y="360" width="120" height="30" as="geometry" />
        </mxCell>
        <mxCell id="YuFaT5m2rjDICg5r3-Z0-77" style="edgeStyle=orthogonalEdgeStyle;rounded=0;orthogonalLoop=1;jettySize=auto;html=1;entryX=1;entryY=0.5;entryDx=0;entryDy=0;" parent="1" source="YuFaT5m2rjDICg5r3-Z0-4" target="YuFaT5m2rjDICg5r3-Z0-76" edge="1">
          <mxGeometry relative="1" as="geometry">
            <Array as="points">
              <mxPoint x="190" y="450" />
              <mxPoint x="75" y="450" />
              <mxPoint x="75" y="550" />
            </Array>
          </mxGeometry>
        </mxCell>
        <mxCell id="YuFaT5m2rjDICg5r3-Z0-4" value="Kilépés" style="rounded=0;whiteSpace=wrap;html=1;" parent="1" vertex="1">
          <mxGeometry x="130" y="410" width="120" height="30" as="geometry" />
        </mxCell>
        <mxCell id="YuFaT5m2rjDICg5r3-Z0-6" value="" style="rounded=0;whiteSpace=wrap;html=1;" parent="1" vertex="1">
          <mxGeometry x="425" y="90" width="190" height="100" as="geometry" />
        </mxCell>
        <mxCell id="YuFaT5m2rjDICg5r3-Z0-7" value="Játék logója" style="text;strokeColor=none;fillColor=none;html=1;fontSize=24;fontStyle=1;verticalAlign=middle;align=center;" parent="1" vertex="1">
          <mxGeometry x="470" y="120" width="100" height="40" as="geometry" />
        </mxCell>
        <mxCell id="YuFaT5m2rjDICg5r3-Z0-15" value="Bomberman" style="strokeWidth=1;shadow=0;dashed=0;align=center;html=1;shape=mxgraph.mockup.containers.window;align=left;verticalAlign=top;spacingLeft=8;strokeColor2=#008cff;strokeColor3=#c4c4c4;fontColor=#666666;mainText=;fontSize=17;labelBackgroundColor=none;whiteSpace=wrap;" parent="1" vertex="1">
          <mxGeometry x="-590" y="40" width="550" height="450" as="geometry" />
        </mxCell>
        <mxCell id="YuFaT5m2rjDICg5r3-Z0-20" value="" style="rounded=0;whiteSpace=wrap;html=1;" parent="1" vertex="1">
          <mxGeometry x="-245" y="90" width="190" height="100" as="geometry" />
        </mxCell>
        <mxCell id="YuFaT5m2rjDICg5r3-Z0-21" value="Játék logója" style="text;strokeColor=none;fillColor=none;html=1;fontSize=24;fontStyle=1;verticalAlign=middle;align=center;" parent="1" vertex="1">
          <mxGeometry x="-200" y="120" width="100" height="40" as="geometry" />
        </mxCell>
        <mxCell id="YuFaT5m2rjDICg5r3-Z0-22" style="edgeStyle=orthogonalEdgeStyle;rounded=0;orthogonalLoop=1;jettySize=auto;html=1;entryX=1.004;entryY=0.522;entryDx=0;entryDy=0;entryPerimeter=0;" parent="1" source="YuFaT5m2rjDICg5r3-Z0-2" target="YuFaT5m2rjDICg5r3-Z0-15" edge="1">
          <mxGeometry relative="1" as="geometry" />
        </mxCell>
        <mxCell id="YuFaT5m2rjDICg5r3-Z0-23" value="2 Játékos" style="rounded=0;whiteSpace=wrap;html=1;" parent="1" vertex="1">
          <mxGeometry x="-570" y="310" width="120" height="30" as="geometry" />
        </mxCell>
        <mxCell id="YuFaT5m2rjDICg5r3-Z0-24" value="3 Játékos" style="rounded=0;whiteSpace=wrap;html=1;" parent="1" vertex="1">
          <mxGeometry x="-560" y="360" width="120" height="30" as="geometry" />
        </mxCell>
        <mxCell id="YuFaT5m2rjDICg5r3-Z0-25" value="Vissza" style="rounded=0;whiteSpace=wrap;html=1;" parent="1" vertex="1">
          <mxGeometry x="-550" y="410" width="120" height="30" as="geometry" />
        </mxCell>
        <mxCell id="YuFaT5m2rjDICg5r3-Z0-26" style="edgeStyle=orthogonalEdgeStyle;rounded=0;orthogonalLoop=1;jettySize=auto;html=1;" parent="1" source="YuFaT5m2rjDICg5r3-Z0-25" edge="1">
          <mxGeometry relative="1" as="geometry">
            <mxPoint x="80" y="430" as="targetPoint" />
          </mxGeometry>
        </mxCell>
        <mxCell id="YuFaT5m2rjDICg5r3-Z0-27" value="Bomberman" style="strokeWidth=1;shadow=0;dashed=0;align=center;html=1;shape=mxgraph.mockup.containers.window;align=left;verticalAlign=top;spacingLeft=8;strokeColor2=#008cff;strokeColor3=#c4c4c4;fontColor=#666666;mainText=;fontSize=17;labelBackgroundColor=none;whiteSpace=wrap;" parent="1" vertex="1">
          <mxGeometry x="-1220" y="40" width="550" height="450" as="geometry" />
        </mxCell>
        <mxCell id="YuFaT5m2rjDICg5r3-Z0-33" style="edgeStyle=orthogonalEdgeStyle;rounded=0;orthogonalLoop=1;jettySize=auto;html=1;" parent="1" source="YuFaT5m2rjDICg5r3-Z0-23" target="YuFaT5m2rjDICg5r3-Z0-27" edge="1">
          <mxGeometry relative="1" as="geometry">
            <Array as="points">
              <mxPoint x="-640" y="325" />
              <mxPoint x="-640" y="325" />
            </Array>
          </mxGeometry>
        </mxCell>
        <mxCell id="YuFaT5m2rjDICg5r3-Z0-35" style="edgeStyle=orthogonalEdgeStyle;rounded=0;orthogonalLoop=1;jettySize=auto;html=1;exitX=0;exitY=0.5;exitDx=0;exitDy=0;entryX=1;entryY=0.744;entryDx=0;entryDy=0;entryPerimeter=0;" parent="1" source="YuFaT5m2rjDICg5r3-Z0-24" target="YuFaT5m2rjDICg5r3-Z0-27" edge="1">
          <mxGeometry relative="1" as="geometry" />
        </mxCell>
        <mxCell id="YuFaT5m2rjDICg5r3-Z0-36" value="7 Nyert Játékért" style="rounded=0;whiteSpace=wrap;html=1;" parent="1" vertex="1">
          <mxGeometry x="-810" y="110" width="120" height="30" as="geometry" />
        </mxCell>
        <mxCell id="YuFaT5m2rjDICg5r3-Z0-40" value="" style="rounded=0;whiteSpace=wrap;html=1;" parent="1" vertex="1">
          <mxGeometry x="-1210" y="100" width="140" height="50" as="geometry" />
        </mxCell>
        <mxCell id="YuFaT5m2rjDICg5r3-Z0-38" value="5 Nyert Játékért" style="rounded=0;whiteSpace=wrap;html=1;" parent="1" vertex="1">
          <mxGeometry x="-1005" y="110" width="120" height="30" as="geometry" />
        </mxCell>
        <mxCell id="YuFaT5m2rjDICg5r3-Z0-39" value="" style="line;strokeWidth=1;rotatable=0;dashed=0;labelPosition=right;align=left;verticalAlign=middle;spacingTop=0;spacingLeft=6;points=[];portConstraint=eastwest;" parent="1" vertex="1">
          <mxGeometry x="-1220" y="160" width="550" height="10" as="geometry" />
        </mxCell>
        <mxCell id="YuFaT5m2rjDICg5r3-Z0-30" value="3 Nyert Játékért" style="rounded=0;whiteSpace=wrap;html=1;" parent="1" vertex="1">
          <mxGeometry x="-1200" y="110" width="120" height="30" as="geometry" />
        </mxCell>
        <mxCell id="YuFaT5m2rjDICg5r3-Z0-41" value="" style="line;strokeWidth=1;rotatable=0;dashed=0;labelPosition=right;align=left;verticalAlign=middle;spacingTop=0;spacingLeft=6;points=[];portConstraint=eastwest;" parent="1" vertex="1">
          <mxGeometry x="-1220" y="290" width="550" height="10" as="geometry" />
        </mxCell>
        <mxCell id="YuFaT5m2rjDICg5r3-Z0-45" value="Meccs egyéb beállításai" style="rounded=0;whiteSpace=wrap;html=1;" parent="1" vertex="1">
          <mxGeometry x="-1190" y="200" width="490" height="60" as="geometry" />
        </mxCell>
        <mxCell id="YuFaT5m2rjDICg5r3-Z0-47" value="Fájlból betöltött pálya választása" style="rounded=0;whiteSpace=wrap;html=1;" parent="1" vertex="1">
          <mxGeometry x="-1600" y="390" width="190" height="60" as="geometry" />
        </mxCell>
        <mxCell id="YuFaT5m2rjDICg5r3-Z0-50" value="Vissza" style="rounded=0;whiteSpace=wrap;html=1;" parent="1" vertex="1">
          <mxGeometry x="-820" y="430" width="120" height="30" as="geometry" />
        </mxCell>
        <mxCell id="YuFaT5m2rjDICg5r3-Z0-52" style="edgeStyle=orthogonalEdgeStyle;rounded=0;orthogonalLoop=1;jettySize=auto;html=1;entryX=0;entryY=0.9;entryDx=0;entryDy=0;entryPerimeter=0;" parent="1" source="YuFaT5m2rjDICg5r3-Z0-50" target="YuFaT5m2rjDICg5r3-Z0-15" edge="1">
          <mxGeometry relative="1" as="geometry" />
        </mxCell>
        <mxCell id="YuFaT5m2rjDICg5r3-Z0-54" style="edgeStyle=orthogonalEdgeStyle;rounded=0;orthogonalLoop=1;jettySize=auto;html=1;entryX=1;entryY=0.5;entryDx=0;entryDy=0;" parent="1" source="YuFaT5m2rjDICg5r3-Z0-53" target="YuFaT5m2rjDICg5r3-Z0-3" edge="1">
          <mxGeometry relative="1" as="geometry" />
        </mxCell>
        <mxCell id="YuFaT5m2rjDICg5r3-Z0-53" value="Nem feltétlenül szükséges" style="rounded=0;whiteSpace=wrap;html=1;" parent="1" vertex="1">
          <mxGeometry x="340" y="345" width="120" height="60" as="geometry" />
        </mxCell>
        <mxCell id="YuFaT5m2rjDICg5r3-Z0-59" style="edgeStyle=orthogonalEdgeStyle;rounded=0;orthogonalLoop=1;jettySize=auto;html=1;" parent="1" source="YuFaT5m2rjDICg5r3-Z0-57" target="YuFaT5m2rjDICg5r3-Z0-58" edge="1">
          <mxGeometry relative="1" as="geometry" />
        </mxCell>
        <mxCell id="YuFaT5m2rjDICg5r3-Z0-57" value="Játék Indítása" style="rounded=0;whiteSpace=wrap;html=1;" parent="1" vertex="1">
          <mxGeometry x="-950" y="430" width="120" height="30" as="geometry" />
        </mxCell>
        <mxCell id="YuFaT5m2rjDICg5r3-Z0-58" value="Elindítja a játékot" style="rounded=0;whiteSpace=wrap;html=1;" parent="1" vertex="1">
          <mxGeometry x="-950" y="550" width="120" height="60" as="geometry" />
        </mxCell>
        <mxCell id="YuFaT5m2rjDICg5r3-Z0-69" value="Bomberman" style="strokeWidth=1;shadow=0;dashed=0;align=center;html=1;shape=mxgraph.mockup.containers.window;align=left;verticalAlign=top;spacingLeft=8;strokeColor2=#008cff;strokeColor3=#c4c4c4;fontColor=#666666;mainText=;fontSize=17;labelBackgroundColor=none;whiteSpace=wrap;" parent="1" vertex="1">
          <mxGeometry x="80" y="600" width="550" height="450" as="geometry" />
        </mxCell>
        <mxCell id="YuFaT5m2rjDICg5r3-Z0-70" value="" style="rounded=0;whiteSpace=wrap;html=1;" parent="1" vertex="1">
          <mxGeometry x="425" y="650" width="190" height="100" as="geometry" />
        </mxCell>
        <mxCell id="YuFaT5m2rjDICg5r3-Z0-71" value="Játék logója" style="text;strokeColor=none;fillColor=none;html=1;fontSize=24;fontStyle=1;verticalAlign=middle;align=center;" parent="1" vertex="1">
          <mxGeometry x="470" y="680" width="100" height="40" as="geometry" />
        </mxCell>
        <mxCell id="YuFaT5m2rjDICg5r3-Z0-81" style="edgeStyle=orthogonalEdgeStyle;rounded=0;orthogonalLoop=1;jettySize=auto;html=1;entryX=1;entryY=0.25;entryDx=0;entryDy=0;" parent="1" source="YuFaT5m2rjDICg5r3-Z0-72" target="YuFaT5m2rjDICg5r3-Z0-80" edge="1">
          <mxGeometry relative="1" as="geometry" />
        </mxCell>
        <mxCell id="YuFaT5m2rjDICg5r3-Z0-72" value="Új Pálya" style="rounded=0;whiteSpace=wrap;html=1;" parent="1" vertex="1">
          <mxGeometry x="100" y="870" width="120" height="30" as="geometry" />
        </mxCell>
        <mxCell id="YuFaT5m2rjDICg5r3-Z0-83" style="edgeStyle=orthogonalEdgeStyle;rounded=0;orthogonalLoop=1;jettySize=auto;html=1;entryX=1;entryY=0.5;entryDx=0;entryDy=0;" parent="1" source="YuFaT5m2rjDICg5r3-Z0-73" target="YuFaT5m2rjDICg5r3-Z0-82" edge="1">
          <mxGeometry relative="1" as="geometry" />
        </mxCell>
        <mxCell id="YuFaT5m2rjDICg5r3-Z0-73" value="Pálya Betöltése" style="rounded=0;whiteSpace=wrap;html=1;" parent="1" vertex="1">
          <mxGeometry x="110" y="920" width="120" height="30" as="geometry" />
        </mxCell>
        <mxCell id="YuFaT5m2rjDICg5r3-Z0-79" style="edgeStyle=orthogonalEdgeStyle;rounded=0;orthogonalLoop=1;jettySize=auto;html=1;entryX=0.066;entryY=1.006;entryDx=0;entryDy=0;entryPerimeter=0;" parent="1" source="YuFaT5m2rjDICg5r3-Z0-74" target="lVE9GoG7l4XIFUj5tRAL-1" edge="1">
          <mxGeometry relative="1" as="geometry">
            <mxPoint x="50" y="610" as="targetPoint" />
            <Array as="points">
              <mxPoint x="60" y="985" />
              <mxPoint x="60" y="560" />
              <mxPoint x="116" y="560" />
            </Array>
          </mxGeometry>
        </mxCell>
        <mxCell id="YuFaT5m2rjDICg5r3-Z0-74" value="Vissza" style="rounded=0;whiteSpace=wrap;html=1;" parent="1" vertex="1">
          <mxGeometry x="120" y="970" width="120" height="30" as="geometry" />
        </mxCell>
        <mxCell id="YuFaT5m2rjDICg5r3-Z0-76" value="Bezárja az alkalmazást" style="rounded=0;whiteSpace=wrap;html=1;" parent="1" vertex="1">
          <mxGeometry x="-100" y="520" width="120" height="60" as="geometry" />
        </mxCell>
        <mxCell id="YuFaT5m2rjDICg5r3-Z0-78" style="edgeStyle=orthogonalEdgeStyle;rounded=0;orthogonalLoop=1;jettySize=auto;html=1;entryX=0.383;entryY=0;entryDx=0;entryDy=0;entryPerimeter=0;" parent="1" source="YuFaT5m2rjDICg5r3-Z0-1" target="YuFaT5m2rjDICg5r3-Z0-69" edge="1">
          <mxGeometry relative="1" as="geometry">
            <mxPoint x="290" y="590" as="targetPoint" />
            <Array as="points">
              <mxPoint x="291" y="325" />
            </Array>
          </mxGeometry>
        </mxCell>
        <mxCell id="YuFaT5m2rjDICg5r3-Z0-80" value="Új pályát létrehozva megnyitja a pályaszerkesztőt" style="rounded=0;whiteSpace=wrap;html=1;" parent="1" vertex="1">
          <mxGeometry x="-270" y="795" width="270" height="60" as="geometry" />
        </mxCell>
        <mxCell id="YuFaT5m2rjDICg5r3-Z0-82" value="A felhasználó kiválasztja egy pálya fájlját,&lt;br&gt;majd megnyílik a pályaszerkesztő a betöltött pályával" style="rounded=0;whiteSpace=wrap;html=1;" parent="1" vertex="1">
          <mxGeometry x="-300" y="905" width="300" height="60" as="geometry" />
        </mxCell>
        <mxCell id="5QBgA_q690AMEtituySx-3" value="Pálya 2" style="rounded=0;whiteSpace=wrap;html=1;" vertex="1" parent="1">
          <mxGeometry x="-1005" y="330" width="120" height="50" as="geometry" />
        </mxCell>
        <mxCell id="5QBgA_q690AMEtituySx-4" value="Pálya 3" style="rounded=0;whiteSpace=wrap;html=1;" vertex="1" parent="1">
          <mxGeometry x="-820" y="330" width="120" height="50" as="geometry" />
        </mxCell>
        <mxCell id="5QBgA_q690AMEtituySx-5" value="" style="rounded=0;whiteSpace=wrap;html=1;" vertex="1" parent="1">
          <mxGeometry x="-1200" y="320" width="130" height="70" as="geometry" />
        </mxCell>
        <mxCell id="5QBgA_q690AMEtituySx-1" value="Pálya 1" style="rounded=0;whiteSpace=wrap;html=1;" vertex="1" parent="1">
          <mxGeometry x="-1195" y="330" width="120" height="50" as="geometry" />
        </mxCell>
        <mxCell id="5QBgA_q690AMEtituySx-7" style="edgeStyle=orthogonalEdgeStyle;rounded=0;orthogonalLoop=1;jettySize=auto;html=1;entryX=1;entryY=0.5;entryDx=0;entryDy=0;" edge="1" parent="1" source="5QBgA_q690AMEtituySx-6" target="YuFaT5m2rjDICg5r3-Z0-47">
          <mxGeometry relative="1" as="geometry" />
        </mxCell>
        <mxCell id="5QBgA_q690AMEtituySx-6" value="Saját Pálya" style="rounded=0;whiteSpace=wrap;html=1;" vertex="1" parent="1">
          <mxGeometry x="-1195" y="430" width="120" height="30" as="geometry" />
        </mxCell>
      </root>
    </mxGraphModel>
  </diagram>
</mxfile>
